<?xml version="1.0" encoding="utf-8"?>
<!-- Generator: Adobe Illustrator 23.0.2, SVG Export Plug-In . SVG Version: 6.00 Build 0)  -->
<svg version="1.1" id="Capa_1" xmlns="http://www.w3.org/2000/svg" xmlns:xlink="http://www.w3.org/1999/xlink" x="0px" y="0px"
	 viewBox="0 0 1920 1080" style="enable-background:new 0 0 1920 1080;" xml:space="preserve">
<style type="text/css">
	.st0{fill:#1786FF;}
</style>
<g>
	<path d="M431.31,257.09h13.32v6.08c1.99-2.48,4.01-4.26,6.05-5.33c2.04-1.07,4.52-1.6,7.45-1.6c3.96,0,7.06,1.18,9.3,3.53
		c2.24,2.36,3.36,5.99,3.36,10.92v23.73h-14.38V273.9c0-2.34-0.43-4-1.3-4.97c-0.87-0.97-2.09-1.46-3.66-1.46
		c-1.73,0-3.14,0.66-4.22,1.97c-1.08,1.31-1.62,3.67-1.62,7.07v17.93h-14.31V257.09z"/>
	<path d="M484.57,275.86c0-5.7,1.92-10.39,5.77-14.08c3.84-3.69,9.04-5.54,15.57-5.54c7.48,0,13.13,2.17,16.95,6.5
		c3.07,3.49,4.61,7.79,4.61,12.9c0,5.74-1.9,10.45-5.71,14.12c-3.81,3.67-9.08,5.5-15.8,5.5c-6,0-10.85-1.52-14.55-4.57
		C486.85,286.93,484.57,281.98,484.57,275.86z M498.92,275.83c0,3.33,0.67,5.79,2.02,7.38c1.35,1.59,3.04,2.39,5.08,2.39
		c2.06,0,3.76-0.79,5.08-2.36c1.32-1.57,1.99-4.09,1.99-7.56c0-3.23-0.67-5.64-2-7.22s-2.99-2.37-4.96-2.37
		c-2.09,0-3.81,0.8-5.17,2.41C499.6,270.1,498.92,272.55,498.92,275.83z"/>
	<path class="st0" d="M431,235.01h246v14.67H562.02v44.74h-18.36v-44.74H431V235.01z"/>
	<path d="M623.74,279.31h-28.69c0.26,2.3,0.88,4.01,1.86,5.13c1.38,1.62,3.19,2.43,5.41,2.43c1.41,0,2.74-0.35,4.01-1.05
		c0.77-0.44,1.6-1.23,2.5-2.36l14.1,1.3c-2.16,3.75-4.76,6.44-7.8,8.07c-3.05,1.63-7.42,2.44-13.11,2.44
		c-4.95,0-8.84-0.7-11.67-2.09c-2.84-1.39-5.19-3.61-7.05-6.64c-1.86-3.04-2.79-6.6-2.79-10.71c0-5.84,1.87-10.56,5.61-14.17
		c3.74-3.61,8.9-5.41,15.49-5.41c5.34,0,9.56,0.81,12.66,2.43s5.45,3.96,7.07,7.03c1.62,3.07,2.43,7.07,2.43,11.99V279.31z
		 M609.19,272.45c-0.28-2.77-1.03-4.75-2.23-5.94c-1.21-1.2-2.79-1.79-4.76-1.79c-2.27,0-4.09,0.9-5.45,2.71
		c-0.87,1.13-1.42,2.8-1.65,5.03H609.19z"/>
	<path d="M663.16,279.8l13.61,1.55c-0.75,2.84-1.98,5.29-3.69,7.37c-1.71,2.07-3.9,3.69-6.56,4.83c-2.66,1.15-6.04,1.72-10.14,1.72
		c-3.96,0-7.26-0.37-9.9-1.11s-4.9-1.93-6.8-3.58c-1.9-1.65-3.39-3.59-4.46-5.81c-1.08-2.22-1.62-5.17-1.62-8.85
		c0-3.84,0.66-7.04,1.97-9.59c0.96-1.87,2.27-3.55,3.94-5.04c1.66-1.49,3.38-2.59,5.13-3.32c2.79-1.15,6.36-1.72,10.72-1.72
		c6.09,0,10.74,1.09,13.94,3.27s5.44,5.37,6.73,9.56l-13.46,1.79c-0.42-1.59-1.19-2.79-2.3-3.6c-1.11-0.81-2.61-1.21-4.48-1.21
		c-2.37,0-4.28,0.85-5.75,2.54c-1.46,1.7-2.2,4.26-2.2,7.7c0,3.06,0.73,5.39,2.18,6.98c1.45,1.59,3.3,2.39,5.55,2.39
		c1.88,0,3.45-0.48,4.73-1.44C661.57,283.27,662.53,281.79,663.16,279.8z"/>
</g>
<rect x="431" y="303" class="st0" width="246" height="3"/>
<g>
</g>
<g>
</g>
<g>
</g>
<g>
</g>
<g>
</g>
<g>
</g>
<g>
</g>
<g>
</g>
<g>
</g>
<g>
</g>
<g>
</g>
<g>
</g>
<g>
</g>
<g>
</g>
<g>
</g>
</svg>
